#N canvas 0 25 1280 747 12;
#X obj 539 167 loadbang;
#X obj 539 191 metro 20;
#X obj 537 215 snapshot~;
#X obj 539 239 print;
#X obj 197 55 adc~ 3;
#X obj 198 261 dac~ 27;
#X obj 199 102 lop~ 50;
#X obj 198 151 sfapdlib/scalesiglin~ 0 0.02 0 1;
#X connect 0 0 1 0;
#X connect 1 0 2 0;
#X connect 2 0 3 0;
#X connect 4 0 6 0;
#X connect 6 0 7 0;
#X connect 7 0 2 0;
#X connect 7 0 5 0;
