#N canvas 0 25 1280 747 10;
#X obj 281 161 adc~ 7 8 9;
#X obj 281 259 lop~ 50;
#X obj 346 259 lop~ 50;
#X obj 406 258 lop~ 50;
#X obj 278 339 expr~ $v1 + $v2 + $v3;
#X obj 281 225 hip~ 2;
#X obj 346 226 hip~ 2;
#X obj 406 224 hip~ 2;
#X obj 278 366 abs~;
#X obj 225 259 lop~ 50;
#X obj 278 392 cyclone/scale~ 0 0.05 0 10;
#X text 499 128 adc 7 - accelerometer x;
#X text 499 144 adc 8 - accelerometer y;
#X text 499 161 adc 9 - accelerometer z;
#X text 495 210 Highpass filtering to remove the dc offset and centering values around 0;
#X text 492 260 Lowpass filtering to smooth data;
#X text 492 336 Summing x \, y \, and z coordinates;
#X text 492 364 Getting the absolute values to get rid of negative values;
#X obj 279 521 outlet~ sum;
#X text 492 391 Scaling to an appropriate range for filter and vibrato input. Reversed scaling on the left object to move the filter cutoff frequency down when hand moves up and up when hand moves down.;
#X obj 57 418 loadbang;
#X obj 55 464 snapshot~;
#X obj 55 443 metro 20;
#X obj 39 525 outlet y;
#X obj 33 391 cyclone/scale~ 0.318 0.486 5000 50;
#X connect 0 0 5 0;
#X connect 0 0 9 0;
#X connect 0 1 6 0;
#X connect 0 2 7 0;
#X connect 1 0 4 0;
#X connect 2 0 4 1;
#X connect 3 0 4 2;
#X connect 4 0 8 0;
#X connect 5 0 1 0;
#X connect 6 0 2 0;
#X connect 7 0 3 0;
#X connect 8 0 10 0;
#X connect 9 0 24 0;
#X connect 10 0 18 0;
#X connect 20 0 22 0;
#X connect 21 0 23 0;
#X connect 22 0 21 0;
#X connect 24 0 21 0;
