#N canvas 637 139 1063 747 10;
#X obj 74 546 pack f f f;
#X obj 248 233 metro 20;
#X obj 67 272 snapshot~;
#X obj 139 273 snapshot~;
#X obj 206 272 snapshot~;
#X obj 70 398 maxlib/scale 0.2 0.68 0 1;
#X obj 248 208 loadbang;
#X obj 70 423 clip 0 1;
#X obj 134 448 clip 0 1;
#X obj 205 473 clip 0 1;
#X obj 134 424 maxlib/scale 0.2 0.68 0 1;
#X obj 205 449 maxlib/scale 0.2 0.68 0 1;
#X text 423 78 adc 7 - accelerometer x;
#X text 423 94 adc 8 - accelerometer y;
#X text 423 111 adc 9 - accelerometer z;
#X text 421 168 Lowpass filtering to smooth data;
#X text 57 18 This patch receives and preprocesses the raw axis coordinates from the accelerometer on the left hand.;
#X obj 59 81 adc~ 3 4 5, f 23;
#X text 417 256 Converting signals to message domain. This step is necessary to provide the right input format for the neuralnet object.;
#X obj 83 585 outlet x y z;
#X text 415 536 Packing the axis coordinates into a list for the neuralnet object.;
#X text 418 397 Scaling each axis values to a normalized range and clipping to stay between 0 and 1;
#X obj 65 172 lop~ 100;
#X obj 130 172 lop~ 100;
#X obj 201 171 lop~ 100;
#X connect 0 0 19 0;
#X connect 1 0 2 0;
#X connect 1 0 3 0;
#X connect 1 0 4 0;
#X connect 2 0 5 0;
#X connect 3 0 10 0;
#X connect 4 0 11 0;
#X connect 5 0 7 0;
#X connect 6 0 1 0;
#X connect 7 0 0 0;
#X connect 8 0 0 1;
#X connect 9 0 0 2;
#X connect 10 0 8 0;
#X connect 11 0 9 0;
#X connect 17 0 22 0;
#X connect 17 1 23 0;
#X connect 17 2 24 0;
#X connect 22 0 2 0;
#X connect 23 0 3 0;
#X connect 24 0 4 0;
