#N canvas 49 25 1280 747 12;
#X obj 945 173 r trill_10;
#X obj 11 35 r trill_0;
#X obj 101 36 r trill_1;
#X obj 189 36 r trill_2;
#X obj 279 35 r trill_3;
#X obj 369 36 r trill_4;
#X obj 458 36 r trill_5;
#X obj 576 173 r trill_6;
#X obj 669 173 r trill_7;
#X obj 760 174 r trill_8;
#X obj 853 173 r trill_9;
#X obj 1037 173 r trill_11;
#X obj 476 348 r trill_12;
#X obj 568 346 r trill_13;
#X obj 1048 494 r trill_14;
#X obj 1160 493 r trill_15;
#X obj 27 118 outlet;
#X obj 104 119 outlet;
#X obj 192 119 outlet;
#X obj 282 118 outlet;
#X obj 372 119 outlet;
#X obj 461 119 outlet;
#X obj 579 256 outlet;
#X obj 672 256 outlet;
#X obj 763 257 outlet;
#X obj 856 256 outlet;
#X obj 948 256 outlet;
#X obj 1040 257 outlet;
#X obj 478 435 outlet;
#X obj 569 435 outlet;
#X obj 1049 583 outlet;
#X obj 1164 584 outlet;
#X obj 12 82 trill_logic;
#X obj 102 82 trill_logic;
#X obj 190 82 trill_logic;
#X obj 280 82 trill_logic;
#X obj 370 82 trill_logic;
#X obj 459 82 trill_logic;
#X obj 577 219 trill_logic;
#X obj 670 219 trill_logic;
#X obj 761 220 trill_logic;
#X obj 854 219 trill_logic;
#X obj 946 219 trill_logic;
#X obj 1038 220 trill_logic;
#X obj 476 398 trill_logic_oct;
#X obj 598 397 trill_logic_oct;
#X obj 1047 546 trill_logic_oct;
#X obj 1162 547 trill_logic_oct;
#X text 564 81 Sensor data processing for the pitch keys of the left hand.;
#X text 133 219 Sensor data processing for the pitch keys of the right hand.;
#X text 738 400 Sensor data processing for the octave up/down keys of the left hand.;
#X text 624 542 Sensor data processing for the octave up/down keys of the right hand.;
#X connect 0 0 42 0;
#X connect 1 0 32 0;
#X connect 2 0 33 0;
#X connect 3 0 34 0;
#X connect 4 0 35 0;
#X connect 5 0 36 0;
#X connect 6 0 37 0;
#X connect 7 0 38 0;
#X connect 8 0 39 0;
#X connect 9 0 40 0;
#X connect 10 0 41 0;
#X connect 11 0 43 0;
#X connect 12 0 44 0;
#X connect 13 0 45 0;
#X connect 14 0 46 0;
#X connect 15 0 47 0;
#X connect 32 0 16 0;
#X connect 33 0 17 0;
#X connect 34 0 18 0;
#X connect 35 0 19 0;
#X connect 36 0 20 0;
#X connect 37 0 21 0;
#X connect 38 0 22 0;
#X connect 39 0 23 0;
#X connect 40 0 24 0;
#X connect 41 0 25 0;
#X connect 42 0 26 0;
#X connect 43 0 27 0;
#X connect 44 0 28 0;
#X connect 45 0 29 0;
#X connect 46 0 30 0;
#X connect 47 0 31 0;
