#N canvas 0 25 1280 747 10;
#X obj 17 26 loadbang;
#X obj 19 120 r bela_trill;
#X obj 19 91 s bela_setTrill;
#X obj 19 145 route mycraft;
#X obj 32 230 s trill_1;
#X obj 18 206 s trill_0;
#X obj 49 255 s trill_2;
#X obj 68 279 s trill_3;
#X obj 94 304 s trill_4;
#X obj 115 327 s trill_5;
#X obj 140 351 s trill_6;
#X obj 164 377 s trill_7;
#X obj 192 401 s trill_8;
#X obj 213 424 s trill_9;
#X obj 235 447 s trill_10;
#X obj 255 471 s trill_11;
#X obj 272 493 s trill_12;
#X obj 294 515 s trill_13;
#X obj 312 542 s trill_14;
#X obj 333 568 s trill_15;
#X obj 19 173 unpack f f f f f f f f f f f f f f f f, f 52;
#X msg 19 52 new mycraft 1 CRAFT \, prescaler mycraft 5 \, threshold mycraft 0.01;
#X text 477 239 Read the first 16 channels \, unpack and send to trill routing;
#X text 470 58 Initializing paremeters for the trill craft. The prescaler value represents the time taken to charge the capacitor. Threshold defines a value under which all values return 0;
#X connect 0 0 21 0;
#X connect 1 0 3 0;
#X connect 3 0 20 0;
#X connect 20 0 5 0;
#X connect 20 1 4 0;
#X connect 20 2 6 0;
#X connect 20 3 7 0;
#X connect 20 4 8 0;
#X connect 20 5 9 0;
#X connect 20 6 10 0;
#X connect 20 7 11 0;
#X connect 20 8 12 0;
#X connect 20 9 13 0;
#X connect 20 10 14 0;
#X connect 20 11 15 0;
#X connect 20 12 16 0;
#X connect 20 13 17 0;
#X connect 20 14 18 0;
#X connect 20 15 19 0;
#X connect 21 0 2 0;
