#N canvas 193 67 1087 705 12;
#X obj 60 -171 adc~ 3 4 5;
#X obj 231 403 netsend -u;
#X msg 270 340 connect 192.168.7.1 8001;
#X text 324 270 IP address may have to be changed to 192.186.6.1 on Windows computers, f 39;
#X text 450 19 smoothing the accelrometer sgnals and mapping (arbitrary) to the range 0-1, f 39;
#X text 326 233 sample accelerometer data every 20 ms and send to computer via UDP, f 35;
#X obj 85 289 pack f f f;
#X obj 373 -138 metro 20;
#X obj 80 85 snapshot~;
#X obj 152 86 snapshot~;
#X obj 219 85 snapshot~;
#X obj 81 141 maxlib/scale 0.2 0.68 0 1;
#X obj 81 166 clip 0 1;
#X obj 145 191 clip 0 1;
#X obj 216 216 clip 0 1;
#X obj 370 -166 loadbang;
#X obj 145 167 maxlib/scale 0.2 0.68 0 1;
#X obj 216 192 maxlib/scale 0.2 0.68 0 1;
#X obj 77 14 lop~ 50;
#X obj 142 14 lop~ 50;
#X obj 213 13 lop~ 50;
#X connect 0 0 18 0;
#X connect 0 1 19 0;
#X connect 0 2 20 0;
#X connect 2 0 1 0;
#X connect 6 0 1 0;
#X connect 7 0 8 0;
#X connect 7 0 9 0;
#X connect 7 0 10 0;
#X connect 8 0 11 0;
#X connect 9 0 16 0;
#X connect 10 0 17 0;
#X connect 11 0 12 0;
#X connect 12 0 6 0;
#X connect 13 0 6 1;
#X connect 14 0 6 2;
#X connect 15 0 7 0;
#X connect 15 0 2 0;
#X connect 16 0 13 0;
#X connect 17 0 14 0;
#X connect 18 0 8 0;
#X connect 19 0 9 0;
#X connect 20 0 10 0;
