#N canvas 0 25 1267 747 10;
#X text 64 30 Accelerometer data processing;
#X text 64 40 ===============================;
#X text 60 54 This patch is an adaptation of the bela tutorial you can find here: https://learn.bela.io/tutorials/pure-data/sensors/accelerometer/;
#X obj 95 593 pack f f f;
#X obj 383 166 metro 20;
#X obj 90 389 snapshot~;
#X obj 162 390 snapshot~;
#X obj 229 389 snapshot~;
#X obj 91 445 maxlib/scale 0.2 0.68 0 1;
#X obj 91 470 clip 0 1;
#X obj 155 495 clip 0 1;
#X obj 226 520 clip 0 1;
#X obj 380 138 loadbang;
#X obj 155 471 maxlib/scale 0.2 0.68 0 1;
#X obj 226 496 maxlib/scale 0.2 0.68 0 1;
#X obj 418 439 abs;
#X obj 632 443 maxlib/scale 0 1 0 30;
#X obj 635 369 snapshot~;
#X obj 413 347 sfapdlib/deltasig~;
#X obj 414 374 snapshot~;
#X obj 410 620 outlet acceleration;
#X obj 633 611 outlet velocity;
#X obj 87 318 lop~ 50;
#X obj 152 318 lop~ 50;
#X obj 223 317 lop~ 50;
#X obj 412 318 lop~ 50;
#X obj 104 632 outlet x y z;
#X obj 117 138 acc_velocity;
#X connect 3 0 26 0;
#X connect 4 0 5 0;
#X connect 4 0 6 0;
#X connect 4 0 7 0;
#X connect 4 0 17 0;
#X connect 4 0 19 0;
#X connect 5 0 8 0;
#X connect 6 0 13 0;
#X connect 7 0 14 0;
#X connect 8 0 9 0;
#X connect 9 0 3 0;
#X connect 10 0 3 1;
#X connect 11 0 3 2;
#X connect 12 0 4 0;
#X connect 13 0 10 0;
#X connect 14 0 11 0;
#X connect 15 0 20 0;
#X connect 16 0 21 0;
#X connect 17 0 16 0;
#X connect 18 0 19 0;
#X connect 19 0 15 0;
#X connect 22 0 5 0;
#X connect 23 0 6 0;
#X connect 24 0 7 0;
#X connect 25 0 18 0;
#X connect 27 0 22 0;
#X connect 27 1 23 0;
#X connect 27 2 24 0;
#X connect 27 3 17 0;
#X connect 27 3 25 0;
