#N canvas 0 25 1267 747 10;
#X text 64 30 Accelerometer data processing;
#X text 64 40 ===============================;
#X text 63 58 This patch is an adaptation of the bela tutorial you can find here: https://learn.bela.io/tutorials/pure-data/sensors/accelerometer/;
#X obj 254 161 metro 20;
#X obj 251 133 loadbang;
#X obj 585 458 abs;
#X obj 426 461 maxlib/scale 0 1 0 30;
#X obj 429 387 snapshot~;
#X obj 593 356 sfapdlib/deltasig~;
#X obj 594 383 snapshot~;
#X obj 590 629 outlet acceleration;
#X obj 427 629 outlet velocity;
#X obj 592 327 lop~ 50;
#X obj 440 216 acc_magnitude~;
#X obj 394 138 adc~ 6 7 8;
#X connect 3 0 7 0;
#X connect 3 0 9 0;
#X connect 4 0 3 0;
#X connect 5 0 10 0;
#X connect 6 0 11 0;
#X connect 7 0 6 0;
#X connect 8 0 9 0;
#X connect 9 0 5 0;
#X connect 12 0 8 0;
#X connect 13 0 7 0;
#X connect 13 0 12 0;
#X connect 14 0 13 0;
#X connect 14 1 13 1;
#X connect 14 2 13 2;
