#N canvas 693 214 976 516 12;
#X obj 38 239 +~;
#X obj 68 280 +~;
#X obj 37 172 inlet~;
#X obj 351 173 inlet~;
#X obj 638 174 inlet~;
#X obj 69 401 outlet~;
#X obj 37 200 pow~ 2;
#X obj 350 203 pow~ 2;
#X obj 637 205 pow~ 2;
#X obj 69 338 pow~ 0.5, f 9;
#X text 465 9 Calculates the magnitude of the acceleration vector from
all individual axes according to the formula:;
#X text 464 44 |a| = sqrt(x^2 + y^2 + z^2);
#X text 33 132 accelerometer x;
#X text 33 150 Received from adc_input abstraction;
#X text 347 151 Received from adc_input abstraction;
#X text 347 133 accelerometer y;
#X text 636 149 Received from adc_input abstraction;
#X text 636 131 accelerometer z;
#X text 144 337 x^0.5 = sqrt(x);
#X text 65 425 Acceleration vector magnitude;
#X text 66 442 Passed to bowing abstraction;
#X connect 0 0 1 0;
#X connect 1 0 9 0;
#X connect 2 0 6 0;
#X connect 3 0 7 0;
#X connect 4 0 8 0;
#X connect 6 0 0 0;
#X connect 7 0 0 1;
#X connect 8 0 1 1;
#X connect 9 0 5 0;
