#N canvas 304 214 976 516 12;
#X obj 38 239 +~;
#X obj 68 280 +~;
#X obj 37 172 inlet~;
#X obj 351 173 inlet~;
#X obj 638 174 inlet~;
#X obj 69 401 outlet~;
#X obj 37 200 pow~ 2;
#X obj 350 203 pow~ 2;
#X obj 637 205 pow~ 2;
#X obj 69 338 pow~ 0.5, f 9;
#X connect 0 0 1 0;
#X connect 1 0 9 0;
#X connect 2 0 6 0;
#X connect 3 0 7 0;
#X connect 4 0 8 0;
#X connect 6 0 0 0;
#X connect 7 0 0 1;
#X connect 8 0 1 1;
#X connect 9 0 5 0;
