#N canvas 0 25 1280 747 12;
#X obj 195 120 spigot;
#X msg 195 153 predict \$1 \$2 \$3;
#X obj 237 84 tgl 19 0 empty empty empty 0 -10 0 12 #fcfcfc #000000 #000000 0 1;
#X text 263 84 enable prediction;
#X obj 195 207 neuralnet;
#X obj 838 998 s folds;
#X obj 888 999 s low1;
#X obj 935 999 s up1;
#X obj 977 997 s low2;
#X obj 1023 997 s up2;
#X obj 1063 997 s low3;
#X obj 1111 997 s up3;
#X obj 896 949 unpack f f f f f f f;
#X obj 848 1008 s folds;
#X obj 898 1009 s low1;
#X obj 945 1009 s up1;
#X obj 987 1007 s low2;
#X obj 1033 1007 s up2;
#X obj 1073 1007 s low3;
#X obj 1121 1007 s up3;
#X obj 906 959 unpack f f f f f f f;
#X obj 77 582 outlet~;
#X obj 174 28 inlet;
#X obj 239 24 inlet;
#X obj 437 131 loadbang;
#X obj 18 356 inlet~;
#X obj 74 527 bp~ 100 10;
#X obj 157 526 bp~ 250 10;
#X obj 241 524 bp~ 500 10;
#X obj 319 524 bp~ 750 10;
#X msg 435 167 load filter.ann;
#X obj 89 319 line;
#X msg 89 289 \$1 20;
#X obj 142 337 line;
#X msg 142 307 \$1 20;
#X obj 196 360 line;
#X msg 196 330 \$1 20;
#X obj 249 378 line;
#X msg 249 348 \$1 20;
#X obj 195 244 unpack f f f f f f f f;
#X obj 292 407 line;
#X msg 292 377 \$1 20;
#X obj 345 425 line;
#X msg 345 395 \$1 20;
#X obj 399 448 line;
#X msg 399 418 \$1 20;
#X obj 452 466 line;
#X msg 452 436 \$1 20;
#X connect 0 0 1 0;
#X connect 1 0 4 0;
#X connect 2 0 0 1;
#X connect 4 0 39 0;
#X connect 12 0 5 0;
#X connect 12 1 6 0;
#X connect 12 2 7 0;
#X connect 12 3 8 0;
#X connect 12 4 9 0;
#X connect 12 5 10 0;
#X connect 12 6 11 0;
#X connect 20 0 13 0;
#X connect 20 1 14 0;
#X connect 20 2 15 0;
#X connect 20 3 16 0;
#X connect 20 4 17 0;
#X connect 20 5 18 0;
#X connect 20 6 19 0;
#X connect 22 0 0 0;
#X connect 23 0 2 0;
#X connect 24 0 30 0;
#X connect 25 0 26 0;
#X connect 25 0 27 0;
#X connect 25 0 28 0;
#X connect 25 0 29 0;
#X connect 26 0 21 0;
#X connect 27 0 21 0;
#X connect 28 0 21 0;
#X connect 29 0 21 0;
#X connect 30 0 4 0;
#X connect 31 0 26 1;
#X connect 32 0 31 0;
#X connect 33 0 26 2;
#X connect 34 0 33 0;
#X connect 35 0 27 1;
#X connect 36 0 35 0;
#X connect 37 0 27 2;
#X connect 38 0 37 0;
#X connect 39 0 32 0;
#X connect 39 1 34 0;
#X connect 39 2 36 0;
#X connect 39 3 38 0;
#X connect 39 4 41 0;
#X connect 39 5 43 0;
#X connect 39 6 45 0;
#X connect 39 7 47 0;
#X connect 40 0 28 1;
#X connect 41 0 40 0;
#X connect 42 0 28 2;
#X connect 43 0 42 0;
#X connect 44 0 29 1;
#X connect 45 0 44 0;
#X connect 46 0 29 2;
#X connect 47 0 46 0;
