#N canvas 665 237 907 747 12;
#X obj 115 112 * 2;
#X obj 174 112 * 3;
#X obj 235 112 * 4;
#X obj 295 112 * 5;
#X obj 352 113 * 6;
#X obj 405 113 * 7;
#X obj 461 112 * 8;
#X text 99 24 Fundamental FQ;
#X obj 104 601 outlet~;
#X obj 37 25 inlet;
#X obj 101 511 *~;
#X obj 615 338 sig~;
#X obj 614 299 inlet;
#X text 662 301 adsr trigger;
#X obj 35 65 mtof;
#X obj 615 371 else/asr~ 1000 1000;
#X obj 99 558 *~ 0.1;
#X obj 505 78 phasor~;
#X obj 505 145 cos~;
#X obj 505 115 +~;
#X obj 533 175 *~;
#X obj 596 153 line;
#X obj 34 309 phasor~;
#X obj 596 123 pack 0 50;
#X obj 596 66 loadbang;
#X msg 596 92 1.5;
#X obj 33 384 cos~;
#X obj 36 352 +~;
#X obj 103 308 phasor~;
#X obj 102 383 cos~;
#X obj 105 351 +~;
#X obj 164 301 phasor~;
#X obj 163 376 cos~;
#X obj 166 344 +~;
#X obj 233 300 phasor~;
#X obj 232 375 cos~;
#X obj 235 343 +~;
#X obj 301 305 phasor~;
#X obj 300 380 cos~;
#X obj 303 348 +~;
#X obj 370 304 phasor~;
#X obj 369 379 cos~;
#X obj 372 347 +~;
#X obj 431 297 phasor~;
#X obj 430 372 cos~;
#X obj 433 340 +~;
#X obj 500 296 phasor~;
#X obj 499 371 cos~;
#X obj 502 339 +~;
#X obj 505 47 /~ 0.99;
#X connect 0 0 28 0;
#X connect 1 0 31 0;
#X connect 2 0 34 0;
#X connect 3 0 37 0;
#X connect 4 0 40 0;
#X connect 5 0 43 0;
#X connect 6 0 46 0;
#X connect 9 0 14 0;
#X connect 10 0 16 0;
#X connect 11 0 15 0;
#X connect 12 0 11 0;
#X connect 14 0 0 0;
#X connect 14 0 1 0;
#X connect 14 0 2 0;
#X connect 14 0 6 0;
#X connect 14 0 5 0;
#X connect 14 0 4 0;
#X connect 14 0 3 0;
#X connect 14 0 22 0;
#X connect 14 0 49 0;
#X connect 15 0 10 1;
#X connect 16 0 8 0;
#X connect 17 0 19 0;
#X connect 18 0 20 0;
#X connect 19 0 18 0;
#X connect 20 0 27 1;
#X connect 20 0 30 1;
#X connect 20 0 48 1;
#X connect 20 0 45 1;
#X connect 20 0 42 1;
#X connect 20 0 39 1;
#X connect 20 0 36 1;
#X connect 20 0 33 1;
#X connect 21 0 20 1;
#X connect 22 0 27 0;
#X connect 23 0 21 0;
#X connect 24 0 25 0;
#X connect 25 0 23 0;
#X connect 26 0 10 0;
#X connect 27 0 26 0;
#X connect 28 0 30 0;
#X connect 29 0 10 0;
#X connect 30 0 29 0;
#X connect 31 0 33 0;
#X connect 32 0 10 0;
#X connect 33 0 32 0;
#X connect 34 0 36 0;
#X connect 35 0 10 0;
#X connect 36 0 35 0;
#X connect 37 0 39 0;
#X connect 38 0 10 0;
#X connect 39 0 38 0;
#X connect 40 0 42 0;
#X connect 41 0 10 0;
#X connect 42 0 41 0;
#X connect 43 0 45 0;
#X connect 44 0 10 0;
#X connect 45 0 44 0;
#X connect 46 0 48 0;
#X connect 47 0 10 0;
#X connect 48 0 47 0;
#X connect 49 0 17 0;
