#N canvas 373 25 907 747 12;
#X obj 115 112 * 2;
#X obj 175 112 * 3;
#X text 99 24 Fundamental FQ;
#X obj 71 507 outlet~;
#X obj 45 26 inlet;
#X obj 68 417 *~;
#X obj 571 204 sig~;
#X obj 569 55 inlet;
#X text 617 57 adsr trigger;
#X obj 43 66 mtof;
#X obj 66 464 *~ 0.1;
#X obj 571 167 tgl 19 0 empty empty empty 0 -10 0 12 #fcfcfc #000000 #000000 0 1;
#X obj 571 237 else/asr~ 50 50;
#X obj 21 159 else/square~;
#X obj 118 161 else/square~;
#X obj 216 161 else/square~;
#X connect 0 0 14 0;
#X connect 1 0 15 0;
#X connect 4 0 9 0;
#X connect 5 0 10 0;
#X connect 6 0 12 0;
#X connect 7 0 11 0;
#X connect 9 0 0 0;
#X connect 9 0 1 0;
#X connect 9 0 13 0;
#X connect 10 0 3 0;
#X connect 11 0 6 0;
#X connect 12 0 5 1;
#X connect 13 0 5 0;
#X connect 14 0 5 0;
#X connect 15 0 5 0;
