#N canvas 336 25 882 747 12;
#X obj 358 220 outlet;
#X obj 311 136 inlet;
#X obj 439 144 0;
#X obj 469 144 12;
#X obj 499 144 24;
#X obj 409 144 -12;
#X obj 379 144 -24;
#X obj 379 109 sel 0 1 2 3 4;
#X obj 357 187 +;
#X obj 381 72 inlet;
#X connect 1 0 8 0;
#X connect 2 0 8 1;
#X connect 3 0 8 1;
#X connect 4 0 8 1;
#X connect 5 0 8 1;
#X connect 6 0 8 1;
#X connect 7 0 6 0;
#X connect 7 1 5 0;
#X connect 7 2 2 0;
#X connect 7 3 3 0;
#X connect 7 4 4 0;
#X connect 8 0 0 0;
#X connect 9 0 7 0;
