#N canvas 237 262 450 300 12;
#X obj 159 130 0;
#X obj 189 130 12;
#X obj 219 130 24;
#X obj 129 130 -12;
#X obj 99 130 -24;
#X obj 99 95 sel 0 1 2 3 4;
#X obj 77 173 outlet;
#X obj 146 49 r octave;
#X connect 0 0 6 0;
#X connect 1 0 6 0;
#X connect 2 0 6 0;
#X connect 3 0 6 0;
#X connect 4 0 6 0;
#X connect 5 0 4 0;
#X connect 5 1 3 0;
#X connect 5 2 0 0;
#X connect 5 3 1 0;
#X connect 5 4 2 0;
#X connect 7 0 5 0;
