#N canvas 201 25 1079 747 12;
#X msg 52 142 54 55 56 57 58 59;
#X obj 53 172 unpack f f f f f f, f 21;
#X obj 71 290 oct;
#X obj 106 291 oct;
#X obj 142 292 oct;
#X obj 177 293 oct;
#X obj 214 292 oct;
#X obj 247 293 oct;
#X obj 250 73 t b f;
#X obj 251 47 inlet;
#X obj 50 92 loadbang;
#X obj 76 389 outlet;
#X obj 126 389 outlet;
#X obj 177 390 outlet;
#X obj 227 390 outlet;
#X obj 279 389 outlet;
#X obj 329 389 outlet;
#X obj 325 52 inlet;
#X obj 502 112 bng 19 250 50 0 empty empty empty 0 -10 0 12 #fcfcfc #000000 #000000;
#X obj 547 481 - 1;
#X obj 513 436 f 2;
#X obj 642 447 t b f;
#X obj 499 274 counter, f 22;
#X obj 564 182 bng 19 250 50 0 empty empty empty 0 -10 0 12 #fcfcfc #000000 #000000;
#X floatatom 503 341 5 0 0 0 - - - 0;
#X obj 749 155 bng 19 250 50 0 empty empty empty 0 -10 0 12 #fcfcfc #000000 #000000;
#X obj 498 171 t b b;
#X connect 0 0 1 0;
#X connect 1 0 2 0;
#X connect 1 1 3 0;
#X connect 1 2 4 0;
#X connect 1 3 5 0;
#X connect 1 4 6 0;
#X connect 1 5 7 0;
#X connect 2 0 11 0;
#X connect 3 0 12 0;
#X connect 4 0 13 0;
#X connect 5 0 14 0;
#X connect 6 0 15 0;
#X connect 7 0 16 0;
#X connect 8 0 0 0;
#X connect 8 1 2 1;
#X connect 8 1 7 1;
#X connect 8 1 6 1;
#X connect 8 1 5 1;
#X connect 8 1 4 1;
#X connect 8 1 3 1;
#X connect 9 0 8 0;
#X connect 10 0 0 0;
#X connect 18 0 26 0;
#X connect 20 0 19 0;
#X connect 22 0 24 0;
#X connect 23 0 22 2;
#X connect 23 0 22 0;
#X connect 25 0 22 0;
#X connect 26 0 22 0;
#X connect 26 1 22 1;
