#N canvas 0 25 1280 747 12;
#X obj 177 170 phasor~;
#X obj 177 237 cos~;
#X obj 177 207 +~;
#X obj 205 267 *~;
#X obj 268 245 line;
#X obj 117 169 phasor~;
#X obj 268 215 pack 0 50;
#X obj 268 158 loadbang;
#X msg 268 184 1.5;
#X obj 112 322 cos~;
#X obj 115 290 +~;
#X obj 177 139 /~ 2.47191;
#X obj 111 471 outlet~;
#X obj 119 62 mtof;
#X obj 119 31 inlet;
#X obj 112 381 *~;
#X obj 388 273 else/asr~ 1000 1000;
#X obj 389 225 sig~;
#X obj 392 120 inlet;
#X obj 105 434 *~ 0.1;
#X obj 387 178 tgl 19 0 empty empty empty 0 -10 0 12 #fcfcfc #000000 #000000 0 1;
#X connect 0 0 2 0;
#X connect 1 0 3 0;
#X connect 2 0 1 0;
#X connect 3 0 10 1;
#X connect 4 0 3 1;
#X connect 5 0 10 0;
#X connect 6 0 4 0;
#X connect 7 0 8 0;
#X connect 8 0 6 0;
#X connect 9 0 15 0;
#X connect 10 0 9 0;
#X connect 11 0 0 0;
#X connect 13 0 5 0;
#X connect 13 0 11 0;
#X connect 14 0 13 0;
#X connect 15 0 19 0;
#X connect 16 0 15 1;
#X connect 17 0 16 0;
#X connect 18 0 20 0;
#X connect 19 0 12 0;
#X connect 20 0 17 0;
