#N canvas 0 25 1280 747 12;
#X obj 111 471 outlet~;
#X obj 119 62 mtof;
#X obj 119 31 inlet;
#X obj 112 381 *~;
#X obj 389 225 sig~;
#X obj 392 120 inlet;
#X obj 387 178 tgl 19 0 empty empty empty 0 -10 0 12 #fcfcfc #000000 #000000 0 1;
#X obj 145 203 else/saw~;
#X obj 105 434 *~ 0.1;
#X obj 388 273 else/asr~ 50 50;
#X connect 1 0 7 0;
#X connect 2 0 1 0;
#X connect 3 0 8 0;
#X connect 4 0 9 0;
#X connect 5 0 6 0;
#X connect 6 0 4 0;
#X connect 7 0 3 0;
#X connect 8 0 0 0;
#X connect 9 0 3 1;
