#N canvas 1 26 1280 747 12;
#X obj 147 170 s bela_setDigital;
#X obj 147 107 loadbang;
#X obj 76 211 tgl 19 0 empty empty empty 0 -10 0 12 #fcfcfc #000000 #000000 0 1;
#X obj 77 161 sel 1;
#X obj 74 135 change;
#X obj 72 92 > 0.2;
#X msg 147 140 out 11;
#X obj 141 317 s bela_digitalOut11;
#X obj 71 55 inlet;
#X text 200 45 trill on/off functionality with LED;
#X connect 1 0 6 0;
#X connect 2 0 7 0;
#X connect 3 0 2 0;
#X connect 4 0 3 0;
#X connect 5 0 4 0;
#X connect 6 0 0 0;
#X connect 8 0 5 0;
