#N canvas 192 25 1063 747 10;
#X text 64 30 Accelerometer data processing;
#X text 64 40 ===============================;
#X obj 73 447 pack f f f;
#X obj 304 186 metro 20;
#X obj 68 243 snapshot~;
#X obj 140 244 snapshot~;
#X obj 207 243 snapshot~;
#X obj 82 486 outlet;
#X obj 69 299 maxlib/scale 0.2 0.68 0 1;
#X obj 304 161 loadbang;
#X obj 69 324 clip 0 1;
#X obj 133 349 clip 0 1;
#X obj 204 374 clip 0 1;
#X obj 130 172 lop~;
#X obj 65 172 lop~;
#X obj 201 171 lop~;
#X obj 142 112 loadbang;
#X msg 142 133 50;
#X obj 133 325 maxlib/scale 0.2 0.68 0 1;
#X obj 204 350 maxlib/scale 0.2 0.68 0 1;
#X obj 59 81 adc~ 3;
#X obj 129 81 adc~ 4;
#X obj 199 81 adc~ 5;
#X connect 2 0 7 0;
#X connect 3 0 4 0;
#X connect 3 0 5 0;
#X connect 3 0 6 0;
#X connect 4 0 8 0;
#X connect 5 0 18 0;
#X connect 6 0 19 0;
#X connect 8 0 10 0;
#X connect 9 0 3 0;
#X connect 10 0 2 0;
#X connect 11 0 2 1;
#X connect 12 0 2 2;
#X connect 13 0 5 0;
#X connect 14 0 4 0;
#X connect 15 0 6 0;
#X connect 16 0 17 0;
#X connect 17 0 14 1;
#X connect 17 0 15 1;
#X connect 17 0 13 1;
#X connect 18 0 11 0;
#X connect 19 0 12 0;
#X connect 20 0 14 0;
#X connect 21 0 13 0;
#X connect 22 0 15 0;
