#N canvas 672 60 900 747 10;
#X text 64 30 Accelerometer data processing;
#X text 64 40 ===============================;
#X text 60 54 This patch is an adaptation of the bela tutorial you can find here: https://learn.bela.io/tutorials/pure-data/sensors/accelerometer/;
#X obj 350 231 adc~ 7 8 9;
#X obj 351 306 lop~ 50;
#X obj 416 306 lop~ 50;
#X obj 476 305 lop~ 50;
#X obj 348 386 expr~ $v1 + $v2 + $v3;
#X obj 357 272 hip~ 2;
#X obj 404 272 hip~ 2;
#X obj 475 274 hip~ 2;
#X obj 348 413 abs~;
#X obj 151 526 loadbang;
#X obj 151 547 metro 20;
#X obj 151 568 snapshot~;
#X obj 257 313 lop~ 50;
#X obj 348 439 cyclone/scale~ 0 0.05 0 10;
#X obj 348 611 outlet~;
#X obj 82 494 cyclone/scale~ 0.318 0.486 3000 50;
#X obj 82 608 outlet~ y;
#X connect 3 0 8 0;
#X connect 3 0 15 0;
#X connect 3 1 9 0;
#X connect 3 2 10 0;
#X connect 4 0 7 0;
#X connect 5 0 7 1;
#X connect 6 0 7 2;
#X connect 7 0 11 0;
#X connect 8 0 4 0;
#X connect 9 0 5 0;
#X connect 10 0 6 0;
#X connect 11 0 16 0;
#X connect 12 0 13 0;
#X connect 13 0 14 0;
#X connect 15 0 18 0;
#X connect 16 0 17 0;
#X connect 18 0 19 0;
