#N canvas 0 25 1280 747 10;
#X obj 29 223 tgl 15 0 empty empty empty 17 7 0 10 #fcfcfc #000000 #000000 0 1;
#X obj 33 75 s bela_setDigital;
#X obj 33 28 loadbang;
#X obj 30 379 s bela_digitalOut11;
#X obj 67 331 outlet;
#X obj 63 300 sel 0 1;
#X obj 64 242 spigot 1;
#X obj 64 273 t a b b;
#X msg 141 259 1;
#X obj 117 177 del 20;
#X msg 117 211 20;
#X obj 194 225 tgl 15 0 empty empty empty 17 7 0 10 #fcfcfc #000000 #000000 0 1;
#X obj 232 333 outlet;
#X obj 228 302 sel 0 1;
#X obj 229 244 spigot 1;
#X obj 229 275 t a b b;
#X msg 306 261 1;
#X obj 282 179 del 20;
#X msg 282 213 20;
#X obj 492 229 tgl 15 0 empty empty empty 17 7 0 10 #fcfcfc #000000 #000000 0 1;
#X obj 530 337 outlet;
#X obj 526 306 sel 0 1;
#X obj 527 248 spigot 1;
#X obj 527 279 t a b b;
#X msg 604 265 1;
#X obj 580 183 del 20;
#X msg 580 217 20;
#X obj 342 229 tgl 15 0 empty empty empty 17 7 0 10 #fcfcfc #000000 #000000 0 1;
#X obj 380 337 outlet;
#X obj 376 306 sel 0 1;
#X obj 377 248 spigot 1;
#X obj 377 279 t a b b;
#X msg 454 265 1;
#X obj 430 183 del 20;
#X msg 430 217 20;
#X obj 32 144 r bela_digitalIn15;
#X obj 197 146 r bela_digitalIn16;
#X obj 495 150 r bela_digitalIn17;
#X obj 345 150 r bela_digitalIn18;
#X obj 194 381 s bela_digitalOut12;
#X obj 492 385 s bela_digitalOut13;
#X obj 342 385 s bela_digitalOut14;
#X msg 33 50 out 11 \, out 12 \, out 13 \, out 14 \, in 15 \, in 16 \, in 17 \, in 18;
#X obj 32 165 sel 0;
#X obj 197 167 sel 0;
#X obj 345 171 sel 0;
#X obj 495 171 sel 0;
#X connect 0 0 3 0;
#X connect 2 0 42 0;
#X connect 5 0 4 0;
#X connect 6 0 7 0;
#X connect 7 0 5 0;
#X connect 7 1 9 0;
#X connect 7 2 8 0;
#X connect 8 0 6 1;
#X connect 9 0 10 0;
#X connect 10 0 6 1;
#X connect 11 0 39 0;
#X connect 13 0 12 0;
#X connect 14 0 15 0;
#X connect 15 0 13 0;
#X connect 15 1 17 0;
#X connect 15 2 16 0;
#X connect 16 0 14 1;
#X connect 17 0 18 0;
#X connect 18 0 14 1;
#X connect 19 0 40 0;
#X connect 21 0 20 0;
#X connect 22 0 23 0;
#X connect 23 0 21 0;
#X connect 23 1 25 0;
#X connect 23 2 24 0;
#X connect 24 0 22 1;
#X connect 25 0 26 0;
#X connect 26 0 22 1;
#X connect 27 0 41 0;
#X connect 29 0 28 0;
#X connect 30 0 31 0;
#X connect 31 0 29 0;
#X connect 31 1 33 0;
#X connect 31 2 32 0;
#X connect 32 0 30 1;
#X connect 33 0 34 0;
#X connect 34 0 30 1;
#X connect 35 0 6 0;
#X connect 35 0 43 0;
#X connect 36 0 14 0;
#X connect 36 0 44 0;
#X connect 37 0 22 0;
#X connect 37 0 46 0;
#X connect 38 0 30 0;
#X connect 38 0 45 0;
#X connect 42 0 1 0;
#X connect 43 0 0 0;
#X connect 44 0 11 0;
#X connect 45 0 27 0;
#X connect 46 0 19 0;
