#N canvas 0 25 1280 747 12;
#X obj 44 54 mtof;
#X obj 44 78 phasor~;
#X obj 44 126 tabread4~ waveform;
#X obj 45 102 *~ 1604;
#X obj 39 466 outlet~;
#X obj 42 301 *~;
#X obj 147 233 sig~;
#X obj 146 166 inlet;
#X obj 147 196 tgl 19 0 empty empty empty 0 -10 0 12 #fcfcfc #000000 #000000 0 1;
#X obj 147 266 else/asr~ 50 50;
#X obj 44 29 inlet;
#X obj 39 435 *~ 0.3;
#X text 194 168 Envelope trigger inlet;
#X obj 225 43;
#X connect 0 0 1 0;
#X connect 1 0 3 0;
#X connect 2 0 5 0;
#X connect 3 0 2 0;
#X connect 5 0 11 0;
#X connect 6 0 9 0;
#X connect 7 0 8 0;
#X connect 8 0 6 0;
#X connect 9 0 5 1;
#X connect 10 0 0 0;
#X connect 11 0 4 0;
