#N canvas 201 25 1079 747 12;
#X obj 120 525 unpack f f f f f f, f 37;
#X obj 123 562 outlet;
#X obj 173 562 outlet;
#X obj 224 563 outlet;
#X obj 274 563 outlet;
#X obj 326 562 outlet;
#X obj 376 562 outlet;
#X obj 50 63 loadbang;
#X obj 130 130 t b b;
#X obj 206 132 t b b;
#X msg 137 167 1;
#X msg 213 169 0;
#X obj 109 219 cyclone/counter 0 4;
#X obj 52 96 t b b b;
#X obj 109 243 sel 0 1 2 3 4;
#X msg 148 365 66 67 68 69 70 71;
#X msg 166 401 78 79 80 81 82 83;
#X msg 192 431 90 91 92 93 94 95;
#X msg 129 328 54 55 56 57 58 59;
#X msg 110 291 42 43 44 45 46 47;
#X obj 124 34 inlet down;
#X obj 204 34 inlet up;
#X text 518 128 Logic to distinguish between bangs to count up or down \, as well as setting the counting direction. Sending 0 sets the counter object to counting up \, setting 1 sets it to count down.;
#X text 519 286 Message objects set the MIDI values for the desired note range.;
#X text 519 239 Sending bangs for count number.;
#X text 517 365 Loadbang-initialized range starts at F#4.;
#X text 516 518 Unpacking the list for single note outlets.;
#X text 522 76 Sending three initial bangs to set the counter to 2 as well as initializing the right scale at startup.;
#X connect 0 0 1 0;
#X connect 0 1 2 0;
#X connect 0 2 3 0;
#X connect 0 3 4 0;
#X connect 0 4 5 0;
#X connect 0 5 6 0;
#X connect 7 0 13 0;
#X connect 7 0 15 0;
#X connect 8 0 12 0;
#X connect 8 1 10 0;
#X connect 9 0 12 0;
#X connect 9 1 11 0;
#X connect 10 0 12 1;
#X connect 11 0 12 1;
#X connect 12 0 14 0;
#X connect 13 0 12 0;
#X connect 13 1 12 0;
#X connect 13 2 12 0;
#X connect 14 0 19 0;
#X connect 14 1 18 0;
#X connect 14 2 15 0;
#X connect 14 3 16 0;
#X connect 14 4 17 0;
#X connect 15 0 0 0;
#X connect 16 0 0 0;
#X connect 17 0 0 0;
#X connect 18 0 0 0;
#X connect 19 0 0 0;
#X connect 20 0 8 0;
#X connect 21 0 9 0;
