#N canvas 201 25 1079 747 12;
#X obj 354 480 unpack f f f f f f, f 37;
#X obj 291 42 loadbang;
#X obj 352 518 outlet;
#X obj 407 517 outlet;
#X obj 458 518 outlet;
#X obj 508 518 outlet;
#X obj 560 517 outlet;
#X obj 610 517 outlet;
#X obj 373 112 t b b;
#X obj 457 111 t b b;
#X msg 380 149 1;
#X msg 464 148 0;
#X obj 351 194 cyclone/counter 0 4;
#X obj 299 75 t b b b;
#X obj 351 218 sel 0 1 2 3 4;
#X msg 383 329 60 61 62 63 64 65;
#X msg 366 295 48 49 50 51 52 53;
#X msg 351 257 36 37 38 39 40 41;
#X msg 404 364 72 73 74 75 76 77;
#X msg 420 396 84 85 86 87 88 89;
#X text 696 112 Logic to distinguish between bangs to count up or down \, as well as setting the counting direction. Sending 0 sets the counter object to counting up \, setting 1 sets it to count down.;
#X text 697 252 Message objects set the MIDI values for the desired note range.;
#X text 697 223 Sending bangs for count number.;
#X text 695 481 Unpacking the list for single note outlets.;
#X text 696 54 Sending three initial bangs to set the counter to 2 as well as initializing the right scale at startup.;
#X text 700 324 Loadbang-initialized range starts at C4.;
#X obj 458 8 inlet up;
#X obj 372 7 inlet down;
#X connect 0 0 2 0;
#X connect 0 1 3 0;
#X connect 0 2 4 0;
#X connect 0 3 5 0;
#X connect 0 4 6 0;
#X connect 0 5 7 0;
#X connect 1 0 13 0;
#X connect 1 0 15 0;
#X connect 8 0 12 0;
#X connect 8 1 10 0;
#X connect 9 0 12 0;
#X connect 9 1 11 0;
#X connect 10 0 12 1;
#X connect 11 0 12 1;
#X connect 12 0 14 0;
#X connect 13 0 12 0;
#X connect 13 1 12 0;
#X connect 13 2 12 0;
#X connect 14 0 17 0;
#X connect 14 1 16 0;
#X connect 14 2 15 0;
#X connect 14 3 18 0;
#X connect 14 4 19 0;
#X connect 15 0 0 0;
#X connect 16 0 0 0;
#X connect 17 0 0 0;
#X connect 18 0 0 0;
#X connect 19 0 0 0;
#X connect 26 0 9 0;
#X connect 27 0 8 0;
