#N canvas 201 25 1079 747 12;
#X obj 313 394 unpack f f f f f f, f 21;
#X obj 316 431 outlet;
#X obj 366 431 outlet;
#X obj 417 432 outlet;
#X obj 467 432 outlet;
#X obj 519 431 outlet;
#X obj 569 431 outlet;
#X obj 272 25 loadbang;
#X obj 358 61 t b b;
#X obj 409 63 t b b;
#X msg 365 98 1;
#X msg 416 100 0;
#X obj 337 150 cyclone/counter 0 4;
#X obj 280 58 t b b b;
#X obj 337 174 sel 0 1 2 3 4;
#X obj 357 28 inlet;
#X obj 410 28 inlet;
#X msg 318 301 66 67 68 69 70 71;
#X msg 451 300 78 79 80 81 82 83;
#X msg 589 299 90 91 92 93 94 95;
#X msg 182 301 54 55 56 57 58 59;
#X msg 47 302 42 43 44 45 46 47;
#X connect 0 0 1 0;
#X connect 0 1 2 0;
#X connect 0 2 3 0;
#X connect 0 3 4 0;
#X connect 0 4 5 0;
#X connect 0 5 6 0;
#X connect 7 0 13 0;
#X connect 7 0 17 0;
#X connect 8 0 12 0;
#X connect 8 1 10 0;
#X connect 9 0 12 0;
#X connect 9 1 11 0;
#X connect 10 0 12 1;
#X connect 11 0 12 1;
#X connect 12 0 14 0;
#X connect 13 0 12 0;
#X connect 13 1 12 0;
#X connect 13 2 12 0;
#X connect 14 0 21 0;
#X connect 14 1 20 0;
#X connect 14 2 17 0;
#X connect 14 3 18 0;
#X connect 14 4 19 0;
#X connect 15 0 8 0;
#X connect 16 0 9 0;
#X connect 17 0 0 0;
#X connect 18 0 0 0;
#X connect 19 0 0 0;
#X connect 20 0 0 0;
#X connect 21 0 0 0;
