#N canvas 201 25 1079 747 12;
#X obj 284 393 unpack f f f f f f, f 21;
#X obj 286 69 loadbang;
#X obj 285 472 outlet;
#X obj 337 430 outlet;
#X obj 388 431 outlet;
#X obj 438 431 outlet;
#X obj 490 430 outlet;
#X obj 540 430 outlet;
#X obj 372 105 t b b;
#X obj 423 107 t b b;
#X msg 379 142 1;
#X msg 430 144 0;
#X obj 351 194 cyclone/counter 0 4;
#X obj 294 102 t b b b;
#X obj 351 218 sel 0 1 2 3 4;
#X obj 371 72 inlet;
#X obj 424 72 inlet;
#X msg 313 319 60 61 62 63 64 65;
#X msg 180 319 48 49 50 51 52 53;
#X msg 37 319 36 37 38 39 40 41;
#X msg 449 319 72 73 74 75 76 77;
#X msg 583 319 84 85 86 87 88 89;
#X connect 0 0 2 0;
#X connect 0 1 3 0;
#X connect 0 2 4 0;
#X connect 0 3 5 0;
#X connect 0 4 6 0;
#X connect 0 5 7 0;
#X connect 1 0 13 0;
#X connect 1 0 17 0;
#X connect 8 0 12 0;
#X connect 8 1 10 0;
#X connect 9 0 12 0;
#X connect 9 1 11 0;
#X connect 10 0 12 1;
#X connect 11 0 12 1;
#X connect 12 0 14 0;
#X connect 13 0 12 0;
#X connect 13 1 12 0;
#X connect 13 2 12 0;
#X connect 14 0 19 0;
#X connect 14 1 18 0;
#X connect 14 2 17 0;
#X connect 14 3 20 0;
#X connect 14 4 21 0;
#X connect 15 0 8 0;
#X connect 16 0 9 0;
#X connect 17 0 0 0;
#X connect 18 0 0 0;
#X connect 19 0 0 0;
#X connect 20 0 0 0;
#X connect 21 0 0 0;
