#N canvas 0 353 493 419 12;
#X obj 102 47 inlet~ one;
#X obj 193 85 inlet~ two;
#X obj 118 181 sig~;
#X obj 118 205 lop~ 1;
#X obj 100 249 *~;
#X obj 28 24 inlet ctrl;
#X obj 211 169 sig~;
#X obj 211 193 lop~ 1;
#X obj 193 248 *~;
#X obj 100 337 outlet~;
#X obj 118 125 == 1;
#X obj 210 115 == 2;
#X obj 100 308 *~;
#X obj 29 242 sig~;
#X obj 29 266 lop~ 1;
#X obj 29 184 != 0;
#X obj 36 68 loadbang;
#X msg 36 92 0;
#X connect 0 0 4 0;
#X connect 1 0 8 0;
#X connect 2 0 3 0;
#X connect 3 0 4 1;
#X connect 4 0 12 0;
#X connect 5 0 11 0;
#X connect 5 0 10 0;
#X connect 5 0 15 0;
#X connect 6 0 7 0;
#X connect 7 0 8 1;
#X connect 8 0 12 0;
#X connect 10 0 2 0;
#X connect 11 0 6 0;
#X connect 12 0 9 0;
#X connect 13 0 14 0;
#X connect 14 0 12 1;
#X connect 15 0 13 0;
#X connect 16 0 17 0;
#X connect 17 0 11 0;
#X connect 17 0 10 0;
#X connect 17 0 15 0;
