#N canvas 179 204 450 300 12;
#X obj 62 181 change;
#X obj 58 98 inlet;
#X obj 64 246 outlet;
#X obj 64 207 sel 1 0;
#X obj 60 138 > 0.02;
#X connect 0 0 3 0;
#X connect 1 0 4 0;
#X connect 3 0 2 0;
#X connect 4 0 0 0;
