#N canvas 731 25 523 747 10;
#X obj 164 124 osc~ 2;
#X obj 63 324 outlet~;
#X obj 31 29 inlet~ signal;
#X obj 164 98 inlet~ rate;
#X obj 268 55 inlet~ depth;
#X obj 65 285 *~ 1;
#X obj 164 200 delread4~ vibrato;
#X obj 31 52 delwrite~ vibrato 20;
#X obj 164 175 +~ 2, f 9;
#X obj 164 149 *~ 1;
#X connect 0 0 9 0;
#X connect 2 0 7 0;
#X connect 2 0 5 0;
#X connect 3 0 0 0;
#X connect 4 0 8 1;
#X connect 4 0 9 1;
#X connect 5 0 1 0;
#X connect 6 0 5 0;
#X connect 8 0 6 0;
#X connect 9 0 8 0;
