#N canvas 72 25 1085 747 12;
#X obj 162 128 spigot;
#X msg 162 161 predict \$1 \$2 \$3;
#X obj 204 92 tgl 19 0 empty empty empty 0 -10 0 12 #fcfcfc #000000 #000000 0 1;
#X text 230 92 enable prediction;
#X obj 162 215 neuralnet;
#X obj 151 580 ws.singlefold~;
#X obj 158 603 ws.singlefold~;
#X obj 168 628 ws.singlefold~;
#X obj 155 437 *~;
#X obj 172 654 clip~ -1 1;
#X obj 838 998 s folds;
#X obj 888 999 s low1;
#X obj 935 999 s up1;
#X obj 977 997 s low2;
#X obj 1023 997 s up2;
#X obj 1063 997 s low3;
#X obj 1111 997 s up3;
#X obj 896 949 unpack f f f f f f f;
#X obj 848 1008 s folds;
#X obj 898 1009 s low1;
#X obj 945 1009 s up1;
#X obj 987 1007 s low2;
#X obj 1033 1007 s up2;
#X obj 1073 1007 s low3;
#X obj 1121 1007 s up3;
#X obj 906 959 unpack f f f f f f f;
#X obj 161 249 unpack f f f f f f f;
#X obj 172 707 outlet~;
#X obj 141 36 inlet;
#X obj 206 32 inlet;
#X obj 404 139 loadbang;
#X obj 57 313 inlet~;
#X msg 161 294 \$1 20;
#X obj 223 322 line;
#X msg 223 292 \$1 20;
#X obj 277 345 line;
#X msg 277 315 \$1 20;
#X obj 330 363 line;
#X msg 330 333 \$1 20;
#X obj 373 392 line;
#X msg 373 362 \$1 20;
#X obj 426 410 line;
#X msg 426 380 \$1 20;
#X obj 480 433 line;
#X msg 480 403 \$1 20;
#X obj 160 355 clip 0.8 20;
#X obj 243 388 clip -1 1;
#X obj 161 324 line;
#X obj 169 397 sig~;
#X obj 258 413 clip -1 1;
#X obj 282 439 clip -1 1;
#X obj 297 464 clip -1 1;
#X obj 323 490 clip -1 1;
#X obj 338 515 clip -1 1;
#X obj 170 680 *~ 0.7;
#X msg 405 166 load wavefolder1.ann;
#X connect 0 0 1 0;
#X connect 1 0 4 0;
#X connect 2 0 0 1;
#X connect 4 0 26 0;
#X connect 5 0 6 0;
#X connect 6 0 7 0;
#X connect 7 0 9 0;
#X connect 8 0 5 0;
#X connect 9 0 54 0;
#X connect 17 0 10 0;
#X connect 17 1 11 0;
#X connect 17 2 12 0;
#X connect 17 3 13 0;
#X connect 17 4 14 0;
#X connect 17 5 15 0;
#X connect 17 6 16 0;
#X connect 25 0 18 0;
#X connect 25 1 19 0;
#X connect 25 2 20 0;
#X connect 25 3 21 0;
#X connect 25 4 22 0;
#X connect 25 5 23 0;
#X connect 25 6 24 0;
#X connect 26 0 32 0;
#X connect 26 1 34 0;
#X connect 26 2 36 0;
#X connect 26 3 38 0;
#X connect 26 4 40 0;
#X connect 26 5 42 0;
#X connect 26 6 44 0;
#X connect 28 0 0 0;
#X connect 29 0 2 0;
#X connect 30 0 55 0;
#X connect 31 0 8 0;
#X connect 32 0 47 0;
#X connect 33 0 46 0;
#X connect 34 0 33 0;
#X connect 35 0 49 0;
#X connect 36 0 35 0;
#X connect 37 0 50 0;
#X connect 38 0 37 0;
#X connect 39 0 51 0;
#X connect 40 0 39 0;
#X connect 41 0 52 0;
#X connect 42 0 41 0;
#X connect 43 0 53 0;
#X connect 44 0 43 0;
#X connect 45 0 48 0;
#X connect 46 0 5 1;
#X connect 47 0 45 0;
#X connect 48 0 8 1;
#X connect 49 0 5 2;
#X connect 50 0 6 1;
#X connect 51 0 6 2;
#X connect 52 0 7 1;
#X connect 53 0 7 2;
#X connect 54 0 27 0;
#X connect 55 0 4 0;
