#N canvas 0 25 1280 747 12;
#X obj 73 204 r LSM9DS1fps;
#X obj 73 280 unpack 0 0 0;
#X text 169 278 roll (x) pitch (y) yaw (z also heading) as messages;
#X text 515 370 smoothing in message domain;
#X obj 73 312 abs;
#X obj 405 93 bng 15 250 50 0 empty empty empty 17 7 0 10 #fcfcfc #000000 #000000;
#X obj 405 113 t b b;
#X obj 407 170 timer;
#X text 456 145 figuring out message rate;
#X obj 76 422 vline~;
#X obj 449 312 abs;
#X obj 450 371 \$1 45;
#X obj 452 409 vline~;
#X obj 259 372 \$1 45;
#X obj 261 410 vline~;
#X obj 74 384 \$1 50;
#X obj 258 339 maxlib/scale -90 90 0 1;
#X obj 449 338 maxlib/scale 0 180 0 1;
#X obj 73 338 maxlib/scale 0 180 0 1;
#X obj 70 469 outlet~;
#X obj 260 463 outlet~;
#X obj 454 454 outlet~;
#X obj 550 592 netsend -u;
#X msg 589 529 connect 192.168.7.1 8001;
#X obj 647 492 loadbang;
#X connect 0 0 1 0;
#X connect 1 0 4 0;
#X connect 1 1 16 0;
#X connect 1 2 10 0;
#X connect 4 0 18 0;
#X connect 5 0 6 0;
#X connect 6 0 7 0;
#X connect 6 1 7 1;
#X connect 9 0 19 0;
#X connect 10 0 17 0;
#X connect 11 0 12 0;
#X connect 12 0 21 0;
#X connect 13 0 14 0;
#X connect 14 0 20 0;
#X connect 15 0 9 0;
#X connect 16 0 13 0;
#X connect 16 0 22 0;
#X connect 17 0 11 0;
#X connect 18 0 15 0;
#X connect 23 0 22 0;
#X connect 24 0 23 0;
